<svg xmlns="http://www.w3.org/2000/svg" version="1.1" xmlns:xlink="http://www.w3.org/1999/xlink" viewBox="0 0 200 200" width="200" height="200"><metadata><rdf:RDF xmlns:rdf="http://www.w3.org/1999/02/22-rdf-syntax-ns#" xmlns:dc="http://purl.org/dc/elements/1.1/"><rdf:Description><dc:creator>RealFaviconGenerator</dc:creator><dc:source>https://realfavicongenerator.net</dc:source></rdf:Description></rdf:RDF></metadata><rect width="200" height="200" fill="url('#gradient')"></rect><defs><linearGradient id="gradient" gradientTransform="rotate(45 0.5 0.5)"><stop offset="0%" stop-color="#3d3d3d"></stop><stop offset="100%" stop-color="#000000"></stop></linearGradient></defs><g><g fill="#ffffff" transform="matrix(1.9168774270636264,0,0,1.9168774270636264,3.9429665548231867,113.62378913677512)" stroke="#82b7ab" stroke-width="0.2"><path d="M4.50-14.22L4.50-2.64L10.47-2.64L10.47 0L1.07 0L1.07-14.22L4.50-14.22ZM15.57-14.22L15.57 0L12.15 0L12.15-14.22L15.57-14.22ZM17.95-14.22L22.45-14.22L25.63-4.33L28.79-14.22L33.30-14.22L33.30 0L29.86 0L29.86-3.32L30.20-10.12L26.76 0L24.49 0L21.04-10.13L21.38-3.32L21.38 0L17.95 0L17.95-14.22ZM39.13-14.22L39.13 0L35.71 0L35.71-14.22L39.13-14.22ZM52.39-14.22L52.39-11.57L48.13-11.57L48.13 0L44.70 0L44.70-11.57L40.51-11.57L40.51-14.22L52.39-14.22ZM57.27-14.22L57.27-2.64L63.23-2.64L63.23 0L53.84 0L53.84-14.22L57.27-14.22ZM73.50-8.57L73.50-6.03L68.11-6.03L68.11-2.64L74.47-2.64L74.47 0L64.68 0L64.68-14.22L74.49-14.22L74.49-11.57L68.11-11.57L68.11-8.57L73.50-8.57ZM83.20-3.78L83.20-3.78Q83.20-4.53 82.67-4.95Q82.14-5.37 80.80-5.82Q79.46-6.27 78.61-6.69L78.61-6.69Q75.85-8.05 75.85-10.42L75.85-10.42Q75.85-11.60 76.54-12.50Q77.23-13.41 78.49-13.91Q79.75-14.41 81.32-14.41L81.32-14.41Q82.85-14.41 84.07-13.87Q85.28-13.32 85.96-12.31Q86.63-11.30 86.63-10L86.63-10L83.21-10Q83.21-10.87 82.68-11.35Q82.15-11.83 81.24-11.83L81.24-11.83Q80.32-11.83 79.79-11.42Q79.26-11.02 79.26-10.39L79.26-10.39Q79.26-9.84 79.84-9.40Q80.43-8.96 81.90-8.48Q83.38-8.01 84.33-7.46L84.33-7.46Q86.63-6.13 86.63-3.80L86.63-3.80Q86.63-1.93 85.22-0.87Q83.82 0.20 81.37 0.20L81.37 0.20Q79.64 0.20 78.24-0.42Q76.84-1.04 76.13-2.12Q75.42-3.20 75.42-4.61L75.42-4.61L78.86-4.61Q78.86-3.47 79.45-2.92Q80.04-2.38 81.37-2.38L81.37-2.38Q82.22-2.38 82.71-2.75Q83.20-3.12 83.20-3.78ZM95.72-3.78L95.72-3.78Q95.72-4.53 95.19-4.95Q94.66-5.37 93.32-5.82Q91.98-6.27 91.13-6.69L91.13-6.69Q88.37-8.05 88.37-10.42L88.37-10.42Q88.37-11.60 89.06-12.50Q89.75-13.41 91.01-13.91Q92.27-14.41 93.84-14.41L93.84-14.41Q95.37-14.41 96.59-13.87Q97.80-13.32 98.48-12.31Q99.15-11.30 99.15-10L99.15-10L95.73-10Q95.73-10.87 95.20-11.35Q94.67-11.83 93.76-11.83L93.76-11.83Q92.84-11.83 92.31-11.42Q91.78-11.02 91.78-10.39L91.78-10.39Q91.78-9.84 92.36-9.40Q92.95-8.96 94.42-8.48Q95.90-8.01 96.85-7.46L96.85-7.46Q99.15-6.13 99.15-3.80L99.15-3.80Q99.15-1.93 97.74-0.87Q96.34 0.20 93.89 0.20L93.89 0.20Q92.16 0.20 90.76-0.42Q89.36-1.04 88.65-2.12Q87.94-3.20 87.94-4.61L87.94-4.61L91.38-4.61Q91.38-3.47 91.97-2.92Q92.56-2.38 93.89-2.38L93.89-2.38Q94.74-2.38 95.23-2.75Q95.72-3.12 95.72-3.78Z"></path></g></g></svg>